<?xml version="1.0" encoding="UTF-8"?>
<svg xmlns="http://www.w3.org/2000/svg"
     xmlns:xlink="http://www.w3.org/1999/xlink"
     xmlns:gadfly="http://www.gadflyjl.org/ns"
     version="1.2"
     width="152.4mm" height="76.2mm" viewBox="0 0 152.4 76.2"
     stroke="none"
     fill="#000000"
     stroke-width="0.3"
     font-size="3.88"
>
<g class="plotroot xscalable yscalable" id="img-62146f58-1">
  <g font-size="3.88" font-family="'PT Sans','Helvetica Neue','Helvetica',sans-serif" fill="#564A55" stroke="#000000" stroke-opacity="0.000" id="img-62146f58-2">
    <text x="82.11" y="64.59" text-anchor="middle" dy="0.6em">x</text>
  </g>
  <g class="guide xlabels" font-size="2.82" font-family="'PT Sans Caption','Helvetica Neue','Helvetica',sans-serif" fill="#6C606B" id="img-62146f58-3">
    <text x="18.83" y="57.91" text-anchor="middle" dy="0.6em">23</text>
    <text x="34.65" y="57.91" text-anchor="middle" dy="0.6em">24</text>
    <text x="50.47" y="57.91" text-anchor="middle" dy="0.6em">25</text>
    <text x="66.29" y="57.91" text-anchor="middle" dy="0.6em">26</text>
    <text x="82.11" y="57.91" text-anchor="middle" dy="0.6em">27</text>
    <text x="97.93" y="57.91" text-anchor="middle" dy="0.6em">28</text>
    <text x="113.76" y="57.91" text-anchor="middle" dy="0.6em">29</text>
    <text x="129.58" y="57.91" text-anchor="middle" dy="0.6em">30</text>
    <text x="145.4" y="57.91" text-anchor="middle" dy="0.6em">31</text>
  </g>
<g clip-path="url(#img-62146f58-4)">
  <g id="img-62146f58-5">
    <g pointer-events="visible" opacity="1" fill="#000000" fill-opacity="0.000" stroke="#000000" stroke-opacity="0.000" class="guide background" id="img-62146f58-6">
      <rect x="16.83" y="5" width="130.57" height="51.91"/>
    </g>
    <g class="guide ygridlines xfixed" stroke-dasharray="0.5,0.5" stroke-width="0.2" stroke="#D0D0E0" id="img-62146f58-7">
      <path fill="none" d="M16.83,54.91 L 147.4 54.91"/>
      <path fill="none" d="M16.83,45.33 L 147.4 45.33"/>
      <path fill="none" d="M16.83,35.75 L 147.4 35.75"/>
      <path fill="none" d="M16.83,26.17 L 147.4 26.17"/>
      <path fill="none" d="M16.83,16.58 L 147.4 16.58"/>
      <path fill="none" d="M16.83,7 L 147.4 7"/>
    </g>
    <g class="guide xgridlines yfixed" stroke-dasharray="0.5,0.5" stroke-width="0.2" stroke="#D0D0E0" id="img-62146f58-8">
      <path fill="none" d="M18.83,5 L 18.83 56.91"/>
      <path fill="none" d="M34.65,5 L 34.65 56.91"/>
      <path fill="none" d="M50.47,5 L 50.47 56.91"/>
      <path fill="none" d="M66.29,5 L 66.29 56.91"/>
      <path fill="none" d="M82.11,5 L 82.11 56.91"/>
      <path fill="none" d="M97.93,5 L 97.93 56.91"/>
      <path fill="none" d="M113.76,5 L 113.76 56.91"/>
      <path fill="none" d="M129.58,5 L 129.58 56.91"/>
      <path fill="none" d="M145.4,5 L 145.4 56.91"/>
    </g>
    <g class="plotpanel" id="img-62146f58-9">
      <g stroke-width="0.3" fill="#000000" fill-opacity="0.000" class="geometry" stroke-dasharray="none" stroke="#00BFFF" id="img-62146f58-10">
        <path fill="none" d="M18.83,22.56 L 34.65 19.93 50.47 20.52 66.29 7.19 82.11 14.71 97.93 37.97 113.76 41.67 129.58 23.61 145.4 19.18"/>
      </g>
      <g class="geometry" id="img-62146f58-11">
        <g stroke-width="0.3" id="img-62146f58-12">
          <g class="color_RGBA{Float32}(0.0f0,0.74736935f0,1.0f0,1.0f0)" stroke="#FFFFFF" fill="#00BFFF" id="img-62146f58-13">
            <use xlink:href="#img-62146f58-14" x="145.4" y="19.18"/>
          </g>
          <g class="color_RGBA{Float32}(0.0f0,0.74736935f0,1.0f0,1.0f0)" stroke="#FFFFFF" fill="#00BFFF" id="img-62146f58-15">
            <use xlink:href="#img-62146f58-16" x="66.29" y="7.19"/>
          </g>
          <g class="color_RGBA{Float32}(0.0f0,0.74736935f0,1.0f0,1.0f0)" stroke="#FFFFFF" fill="#00BFFF" id="img-62146f58-17">
            <use xlink:href="#img-62146f58-18" x="18.83" y="22.56"/>
          </g>
          <g class="color_RGBA{Float32}(0.0f0,0.74736935f0,1.0f0,1.0f0)" stroke="#FFFFFF" fill="#00BFFF" id="img-62146f58-19">
            <use xlink:href="#img-62146f58-20" x="129.58" y="23.61"/>
          </g>
          <g class="color_RGBA{Float32}(0.0f0,0.74736935f0,1.0f0,1.0f0)" stroke="#FFFFFF" fill="#00BFFF" id="img-62146f58-21">
            <use xlink:href="#img-62146f58-22" x="50.47" y="20.52"/>
          </g>
          <g class="color_RGBA{Float32}(0.0f0,0.74736935f0,1.0f0,1.0f0)" stroke="#FFFFFF" fill="#00BFFF" id="img-62146f58-23">
            <use xlink:href="#img-62146f58-24" x="82.11" y="14.71"/>
          </g>
          <g class="color_RGBA{Float32}(0.0f0,0.74736935f0,1.0f0,1.0f0)" stroke="#FFFFFF" fill="#00BFFF" id="img-62146f58-25">
            <use xlink:href="#img-62146f58-26" x="113.76" y="41.67"/>
          </g>
          <g class="color_RGBA{Float32}(0.0f0,0.74736935f0,1.0f0,1.0f0)" stroke="#FFFFFF" fill="#00BFFF" id="img-62146f58-27">
            <use xlink:href="#img-62146f58-28" x="34.65" y="19.93"/>
          </g>
          <g class="color_RGBA{Float32}(0.0f0,0.74736935f0,1.0f0,1.0f0)" stroke="#FFFFFF" fill="#00BFFF" id="img-62146f58-29">
            <use xlink:href="#img-62146f58-30" x="97.93" y="37.97"/>
          </g>
        </g>
      </g>
    </g>
  </g>
</g>
  <g class="guide ylabels" font-size="2.82" font-family="'PT Sans Caption','Helvetica Neue','Helvetica',sans-serif" fill="#6C606B" id="img-62146f58-31">
    <text x="15.83" y="54.91" text-anchor="end" dy="0.35em">0.0</text>
    <text x="15.83" y="45.33" text-anchor="end" dy="0.35em">0.1</text>
    <text x="15.83" y="35.75" text-anchor="end" dy="0.35em">0.2</text>
    <text x="15.83" y="26.17" text-anchor="end" dy="0.35em">0.3</text>
    <text x="15.83" y="16.58" text-anchor="end" dy="0.35em">0.4</text>
    <text x="15.83" y="7" text-anchor="end" dy="0.35em">0.5</text>
  </g>
  <g font-size="3.88" font-family="'PT Sans','Helvetica Neue','Helvetica',sans-serif" fill="#564A55" stroke="#000000" stroke-opacity="0.000" id="img-62146f58-32">
    <text x="8.81" y="30.96" text-anchor="end" dy="0.35em">y</text>
  </g>
</g>
<defs>
  <clipPath id="img-62146f58-4">
  <path d="M16.83,5 L 147.4 5 147.4 56.91 16.83 56.91" />
</clipPath>
  <g id="img-62146f58-14">
    <circle cx="0" cy="0" r="0.9"/>
  </g>
  <g id="img-62146f58-16">
    <circle cx="0" cy="0" r="0.9"/>
  </g>
  <g id="img-62146f58-18">
    <circle cx="0" cy="0" r="0.9"/>
  </g>
  <g id="img-62146f58-20">
    <circle cx="0" cy="0" r="0.9"/>
  </g>
  <g id="img-62146f58-22">
    <circle cx="0" cy="0" r="0.9"/>
  </g>
  <g id="img-62146f58-24">
    <circle cx="0" cy="0" r="0.9"/>
  </g>
  <g id="img-62146f58-26">
    <circle cx="0" cy="0" r="0.9"/>
  </g>
  <g id="img-62146f58-28">
    <circle cx="0" cy="0" r="0.9"/>
  </g>
  <g id="img-62146f58-30">
    <circle cx="0" cy="0" r="0.9"/>
  </g>
</defs>
</svg>
